<svg width="105" height="95" viewBox="0 0 105 95" fill="none" xmlns="http://www.w3.org/2000/svg">
<ellipse cx="52.5" cy="47.5" rx="52.5" ry="47.5" fill="#D14103"/>
<path d="M50.6005 38.712L44.0085 59H40.6805L33.3525 38.488C32.4992 38.3173 31.5392 38.0613 30.4725 37.72L30.5685 36.6H38.8885C39.2512 37.2827 39.4325 37.9227 39.4325 38.52C38.3872 38.584 37.4272 38.648 36.5525 38.712L42.2165 55.64H42.3765C42.8458 54.04 44.6272 48.3227 47.7205 38.488C46.8672 38.36 45.8645 38.104 44.7125 37.72L44.8085 36.6H52.8405C53.2032 37.2827 53.3845 37.9227 53.3845 38.52C52.4032 38.584 51.4752 38.648 50.6005 38.712ZM65.9755 39.16C65.2928 38.9467 64.3862 38.84 63.2555 38.84H60.5995L60.5035 46.904L62.9355 46.872C64.5142 46.8507 65.7728 46.5307 66.7115 45.912C67.6502 45.2933 68.1195 44.12 68.1195 42.392C68.1195 40.6427 67.4048 39.5653 65.9755 39.16ZM60.4715 48.952L60.3755 56.856L63.0315 57.08C63.0315 57.6773 62.8502 58.3173 62.4875 59H55.1275L55.0315 57.88C55.9275 57.56 56.8448 57.3147 57.7835 57.144C57.6555 49.0373 57.5488 42.8507 57.4635 38.584C56.8662 38.4987 55.9275 38.2427 54.6475 37.816C54.6475 37.5387 54.7008 37.1333 54.8075 36.6H62.0075C65.9115 36.6 68.4502 37.08 69.6235 38.04C70.7755 38.9573 71.3515 40.3973 71.3515 42.36C71.3515 45.6667 69.5382 47.8107 65.9115 48.792L71.3835 56.888L74.0395 57.112C74.0395 57.688 73.8582 58.3173 73.4955 59H69.5595L62.8395 48.952H60.4715Z" fill="black"/>
</svg>
